  0
SECTION
  2
HEADER
  9
$MEASUREMENT
  70
  1
  9
$INSUNITS
  70
  4
  0
ENDSEC
  0
SECTION
  2
TABLES
  0
TABLE
  2
LTYPE
 70
     1
  0
LTYPE
  2
CONTINUOUS
 70
    64
  3
Ausgezogene Linie
 72
    65
 73
     0
 40
0.0
  0
ENDTAB
  0
TABLE
  2
LAYER
 70
     3
  0
LAYER
  2
Contour
 70
    64
 62
     7
  6
CONTINUOUS
  0
LAYER
  2
Engraving
 70
    64
 62
     7
  6
CONTINUOUS
  0
LAYER
  2
Reference_points
 70
    64
 62
     1
  6
CONTINUOUS
  0
ENDTAB
  0
TABLE
  2
STYLE
 70
     1
  0
STYLE
  2
TXT
 70
    64
 40
0.0
 41
1.0
 50
0.0
 71
     0
 42
3.500000
  3
TXT
  0
ENDTAB
  0
ENDSEC
  0
SECTION
  2
BLOCKS
  0
ENDSEC
  0
SECTION
  2
ENTITIES
  0
LINE
  8
Contour
 62
   7
 39
0.100
  6
CONTINUOUS
 10
19.98000
 20
128.40000
 30
 0
 11
19.98000
 21
0.00000
  0
LINE
  8
Contour
 62
   7
 39
0.100
  6
CONTINUOUS
 10
19.98000
 20
0.00000
 30
 0
 11
0.00000
 21
0.00000
  0
LINE
  8
Contour
 62
   7
 39
0.100
  6
CONTINUOUS
 10
0.00000
 20
0.00000
 30
 0
 11
0.00000
 21
128.40000
  0
LINE
  8
Contour
 62
   7
 39
0.100
  6
CONTINUOUS
 10
0.00000
 20
128.40000
 30
 0
 11
19.98000
 21
128.40000
  0
LINE
  8
Engraving
 62
   7
 39
0.600
  6
CONTINUOUS
 10
5.81598
 20
111.98591
 30
 0
 11
5.81598
 21
109.73100
  0
LINE
  8
Engraving
 62
   7
 39
0.600
  6
CONTINUOUS
 10
5.81598
 20
109.73100
 30
 0
 11
7.21676
 21
109.73100
  0
LINE
  8
Engraving
 62
   7
 39
0.600
  6
CONTINUOUS
 10
7.21676
 20
109.73100
 30
 0
 11
7.49009
 21
109.79933
  0
LINE
  8
Engraving
 62
   7
 39
0.600
  6
CONTINUOUS
 10
7.49009
 20
109.79933
 30
 0
 11
7.72924
 21
109.93599
  0
LINE
  8
Engraving
 62
   7
 39
0.600
  6
CONTINUOUS
 10
7.72924
 20
109.93599
 30
 0
 11
7.90007
 21
110.14098
  0
LINE
  8
Engraving
 62
   7
 39
0.600
  6
CONTINUOUS
 10
7.90007
 20
110.14098
 30
 0
 11
8.03673
 21
110.44847
  0
LINE
  8
Engraving
 62
   7
 39
0.600
  6
CONTINUOUS
 10
8.03673
 20
110.44847
 30
 0
 11
8.03673
 21
110.65346
  0
LINE
  8
Engraving
 62
   7
 39
0.600
  6
CONTINUOUS
 10
8.03673
 20
110.65346
 30
 0
 11
8.03673
 21
113.25003
  0
LINE
  8
Engraving
 62
   7
 39
0.600
  6
CONTINUOUS
 10
8.03673
 20
113.25003
 30
 0
 11
8.00257
 21
113.45502
  0
LINE
  8
Engraving
 62
   7
 39
0.600
  6
CONTINUOUS
 10
8.00257
 20
113.45502
 30
 0
 11
7.90007
 21
113.69418
  0
LINE
  8
Engraving
 62
   7
 39
0.600
  6
CONTINUOUS
 10
7.90007
 20
113.69418
 30
 0
 11
7.72924
 21
113.86501
  0
LINE
  8
Engraving
 62
   7
 39
0.600
  6
CONTINUOUS
 10
7.72924
 20
113.86501
 30
 0
 11
7.49009
 21
114.03583
  0
LINE
  8
Engraving
 62
   7
 39
0.600
  6
CONTINUOUS
 10
7.49009
 20
114.03583
 30
 0
 11
7.21676
 21
114.07000
  0
LINE
  8
Engraving
 62
   7
 39
0.600
  6
CONTINUOUS
 10
7.21676
 20
114.07000
 30
 0
 11
5.81598
 21
114.07000
  0
LINE
  8
Engraving
 62
   7
 39
0.600
  6
CONTINUOUS
 10
5.81598
 20
114.07000
 30
 0
 11
5.81598
 21
111.98591
  0
LINE
  8
Engraving
 62
   7
 39
0.600
  6
CONTINUOUS
 10
8.92515
 20
114.07100
 30
 0
 11
10.15510
 21
109.73200
  0
LINE
  8
Engraving
 62
   7
 39
0.600
  6
CONTINUOUS
 10
10.15510
 20
109.73200
 30
 0
 11
11.38506
 21
114.07100
  0
LINE
  8
Engraving
 62
   7
 39
0.600
  6
CONTINUOUS
 10
12.23898
 20
110.99612
 30
 0
 11
12.23898
 21
110.58613
  0
LINE
  8
Engraving
 62
   7
 39
0.600
  6
CONTINUOUS
 10
12.23898
 20
110.58613
 30
 0
 11
12.30731
 21
110.24448
  0
LINE
  8
Engraving
 62
   7
 39
0.600
  6
CONTINUOUS
 10
12.30731
 20
110.24448
 30
 0
 11
12.47814
 21
110.00532
  0
LINE
  8
Engraving
 62
   7
 39
0.600
  6
CONTINUOUS
 10
12.47814
 20
110.00532
 30
 0
 11
12.68313
 21
109.83450
  0
LINE
  8
Engraving
 62
   7
 39
0.600
  6
CONTINUOUS
 10
12.68313
 20
109.83450
 30
 0
 11
13.02479
 21
109.73200
  0
LINE
  8
Engraving
 62
   7
 39
0.600
  6
CONTINUOUS
 10
13.02479
 20
109.73200
 30
 0
 11
13.19561
 21
109.69783
  0
LINE
  8
Engraving
 62
   7
 39
0.600
  6
CONTINUOUS
 10
13.19561
 20
109.69783
 30
 0
 11
13.50310
 21
109.73200
  0
LINE
  8
Engraving
 62
   7
 39
0.600
  6
CONTINUOUS
 10
13.50310
 20
109.73200
 30
 0
 11
13.74226
 21
109.83450
  0
LINE
  8
Engraving
 62
   7
 39
0.600
  6
CONTINUOUS
 10
13.74226
 20
109.83450
 30
 0
 11
13.94725
 21
110.00532
  0
LINE
  8
Engraving
 62
   7
 39
0.600
  6
CONTINUOUS
 10
13.94725
 20
110.00532
 30
 0
 11
14.11808
 21
110.24448
  0
LINE
  8
Engraving
 62
   7
 39
0.600
  6
CONTINUOUS
 10
14.11808
 20
110.24448
 30
 0
 11
14.18641
 21
110.58613
  0
LINE
  8
Engraving
 62
   7
 39
0.600
  6
CONTINUOUS
 10
14.18641
 20
110.58613
 30
 0
 11
14.18641
 21
111.37194
  0
LINE
  8
Engraving
 62
   7
 39
0.600
  6
CONTINUOUS
 10
14.18641
 20
111.37194
 30
 0
 11
14.11808
 21
111.67943
  0
LINE
  8
Engraving
 62
   7
 39
0.600
  6
CONTINUOUS
 10
14.11808
 20
111.67943
 30
 0
 11
13.94725
 21
111.91858
  0
LINE
  8
Engraving
 62
   7
 39
0.600
  6
CONTINUOUS
 10
13.94725
 20
111.91858
 30
 0
 11
13.63976
 21
112.05524
  0
LINE
  8
Engraving
 62
   7
 39
0.600
  6
CONTINUOUS
 10
13.63976
 20
112.05524
 30
 0
 11
12.81980
 21
112.05524
  0
LINE
  8
Engraving
 62
   7
 39
0.600
  6
CONTINUOUS
 10
12.81980
 20
112.05524
 30
 0
 11
13.63976
 21
112.05524
  0
LINE
  8
Engraving
 62
   7
 39
0.600
  6
CONTINUOUS
 10
13.63976
 20
112.05524
 30
 0
 11
13.91309
 21
112.26024
  0
LINE
  8
Engraving
 62
   7
 39
0.600
  6
CONTINUOUS
 10
13.91309
 20
112.26024
 30
 0
 11
14.08391
 21
112.43106
  0
LINE
  8
Engraving
 62
   7
 39
0.600
  6
CONTINUOUS
 10
14.08391
 20
112.43106
 30
 0
 11
14.11808
 21
112.67022
  0
LINE
  8
Engraving
 62
   7
 39
0.600
  6
CONTINUOUS
 10
14.11808
 20
112.67022
 30
 0
 11
14.11808
 21
113.31936
  0
LINE
  8
Engraving
 62
   7
 39
0.600
  6
CONTINUOUS
 10
14.11808
 20
113.31936
 30
 0
 11
14.08391
 21
113.59269
  0
LINE
  8
Engraving
 62
   7
 39
0.600
  6
CONTINUOUS
 10
14.08391
 20
113.59269
 30
 0
 11
13.94725
 21
113.83184
  0
LINE
  8
Engraving
 62
   7
 39
0.600
  6
CONTINUOUS
 10
13.94725
 20
113.83184
 30
 0
 11
13.74226
 21
114.03683
  0
LINE
  8
Engraving
 62
   7
 39
0.600
  6
CONTINUOUS
 10
13.74226
 20
114.03683
 30
 0
 11
13.50310
 21
114.10517
  0
LINE
  8
Engraving
 62
   7
 39
0.600
  6
CONTINUOUS
 10
13.50310
 20
114.10517
 30
 0
 11
13.29811
 21
114.13933
  0
LINE
  8
Engraving
 62
   7
 39
0.600
  6
CONTINUOUS
 10
13.29811
 20
114.13933
 30
 0
 11
13.12728
 21
114.13933
  0
LINE
  8
Engraving
 62
   7
 39
0.600
  6
CONTINUOUS
 10
13.12728
 20
114.13933
 30
 0
 11
12.85396
 21
114.10517
  0
LINE
  8
Engraving
 62
   7
 39
0.600
  6
CONTINUOUS
 10
12.85396
 20
114.10517
 30
 0
 11
12.61480
 21
113.96850
  0
LINE
  8
Engraving
 62
   7
 39
0.600
  6
CONTINUOUS
 10
12.61480
 20
113.96850
 30
 0
 11
12.44398
 21
113.79768
  0
LINE
  8
Engraving
 62
   7
 39
0.600
  6
CONTINUOUS
 10
12.44398
 20
113.79768
 30
 0
 11
12.34148
 21
113.55852
  0
LINE
  8
Engraving
 62
   7
 39
0.600
  6
CONTINUOUS
 10
12.34148
 20
113.55852
 30
 0
 11
12.27315
 21
113.31936
  0
LINE
  8
Engraving
 62
   7
 39
0.600
  6
CONTINUOUS
 10
12.27315
 20
113.31936
 30
 0
 11
12.27315
 21
112.90938
  0
LINE
  8
Engraving
 62
   7
 39
0.200
  6
CONTINUOUS
 10
16.82136
 20
94.50500
 30
 0
 11
17.46483
 21
96.77500
  0
LINE
  8
Engraving
 62
   7
 39
0.200
  6
CONTINUOUS
 10
17.46483
 20
96.77500
 30
 0
 11
17.53632
 21
96.77500
  0
LINE
  8
Engraving
 62
   7
 39
0.200
  6
CONTINUOUS
 10
17.53632
 20
96.77500
 30
 0
 11
18.17979
 21
94.50500
  0
LINE
  8
Engraving
 62
   7
 39
0.200
  6
CONTINUOUS
 10
17.01798
 20
95.20209
 30
 0
 11
17.98317
 21
95.20209
  0
LINE
  8
Engraving
 62
   7
 39
0.200
  6
CONTINUOUS
 10
16.82136
 20
48.77500
 30
 0
 11
17.46483
 21
51.04500
  0
LINE
  8
Engraving
 62
   7
 39
0.200
  6
CONTINUOUS
 10
17.46483
 20
51.04500
 30
 0
 11
17.53632
 21
51.04500
  0
LINE
  8
Engraving
 62
   7
 39
0.200
  6
CONTINUOUS
 10
17.53632
 20
51.04500
 30
 0
 11
18.17979
 21
48.77500
  0
LINE
  8
Engraving
 62
   7
 39
0.200
  6
CONTINUOUS
 10
17.01798
 20
49.47209
 30
 0
 11
17.98317
 21
49.47209
  0
LINE
  8
Engraving
 62
   7
 39
0.200
  6
CONTINUOUS
 10
17.60770
 20
81.68681
 30
 0
 11
17.76857
 21
81.68681
  0
LINE
  8
Engraving
 62
   7
 39
0.200
  6
CONTINUOUS
 10
17.76857
 20
81.68681
 30
 0
 11
17.91156
 21
81.59744
  0
LINE
  8
Engraving
 62
   7
 39
0.200
  6
CONTINUOUS
 10
17.91156
 20
81.59744
 30
 0
 11
18.00093
 21
81.47232
  0
LINE
  8
Engraving
 62
   7
 39
0.200
  6
CONTINUOUS
 10
18.00093
 20
81.47232
 30
 0
 11
18.01880
 21
81.34720
  0
LINE
  8
Engraving
 62
   7
 39
0.200
  6
CONTINUOUS
 10
18.01880
 20
81.34720
 30
 0
 11
18.01880
 21
80.79311
  0
LINE
  8
Engraving
 62
   7
 39
0.200
  6
CONTINUOUS
 10
18.01880
 20
80.79311
 30
 0
 11
18.03668
 21
80.66799
  0
LINE
  8
Engraving
 62
   7
 39
0.200
  6
CONTINUOUS
 10
18.03668
 20
80.66799
 30
 0
 11
18.05455
 21
80.52500
  0
LINE
  8
Engraving
 62
   7
 39
0.200
  6
CONTINUOUS
 10
16.94636
 20
80.52500
 30
 0
 11
16.94636
 21
82.79500
  0
LINE
  8
Engraving
 62
   7
 39
0.200
  6
CONTINUOUS
 10
16.94636
 20
82.79500
 30
 0
 11
17.58983
 21
82.79500
  0
LINE
  8
Engraving
 62
   7
 39
0.200
  6
CONTINUOUS
 10
17.58983
 20
82.79500
 30
 0
 11
17.78644
 21
82.74138
  0
LINE
  8
Engraving
 62
   7
 39
0.200
  6
CONTINUOUS
 10
17.78644
 20
82.74138
 30
 0
 11
17.91156
 21
82.65201
  0
LINE
  8
Engraving
 62
   7
 39
0.200
  6
CONTINUOUS
 10
17.91156
 20
82.65201
 30
 0
 11
18.00093
 21
82.52689
  0
LINE
  8
Engraving
 62
   7
 39
0.200
  6
CONTINUOUS
 10
18.00093
 20
82.52689
 30
 0
 11
18.01880
 21
82.36602
  0
LINE
  8
Engraving
 62
   7
 39
0.200
  6
CONTINUOUS
 10
18.01880
 20
82.36602
 30
 0
 11
18.01880
 21
82.11579
  0
LINE
  8
Engraving
 62
   7
 39
0.200
  6
CONTINUOUS
 10
18.01880
 20
82.11579
 30
 0
 11
18.00093
 21
81.97280
  0
LINE
  8
Engraving
 62
   7
 39
0.200
  6
CONTINUOUS
 10
18.00093
 20
81.97280
 30
 0
 11
17.91156
 21
81.82980
  0
LINE
  8
Engraving
 62
   7
 39
0.200
  6
CONTINUOUS
 10
17.91156
 20
81.82980
 30
 0
 11
17.80431
 21
81.74043
  0
LINE
  8
Engraving
 62
   7
 39
0.200
  6
CONTINUOUS
 10
17.80431
 20
81.74043
 30
 0
 11
17.60770
 21
81.68681
  0
LINE
  8
Engraving
 62
   7
 39
0.200
  6
CONTINUOUS
 10
17.60770
 20
81.68681
 30
 0
 11
16.94636
 21
81.68681
  0
LINE
  8
Engraving
 62
   7
 39
0.200
  6
CONTINUOUS
 10
17.60770
 20
35.95681
 30
 0
 11
17.76857
 21
35.95681
  0
LINE
  8
Engraving
 62
   7
 39
0.200
  6
CONTINUOUS
 10
17.76857
 20
35.95681
 30
 0
 11
17.91156
 21
35.86744
  0
LINE
  8
Engraving
 62
   7
 39
0.200
  6
CONTINUOUS
 10
17.91156
 20
35.86744
 30
 0
 11
18.00093
 21
35.74232
  0
LINE
  8
Engraving
 62
   7
 39
0.200
  6
CONTINUOUS
 10
18.00093
 20
35.74232
 30
 0
 11
18.01880
 21
35.61720
  0
LINE
  8
Engraving
 62
   7
 39
0.200
  6
CONTINUOUS
 10
18.01880
 20
35.61720
 30
 0
 11
18.01880
 21
35.06311
  0
LINE
  8
Engraving
 62
   7
 39
0.200
  6
CONTINUOUS
 10
18.01880
 20
35.06311
 30
 0
 11
18.03668
 21
34.93799
  0
LINE
  8
Engraving
 62
   7
 39
0.200
  6
CONTINUOUS
 10
18.03668
 20
34.93799
 30
 0
 11
18.05455
 21
34.79500
  0
LINE
  8
Engraving
 62
   7
 39
0.200
  6
CONTINUOUS
 10
16.94636
 20
34.79500
 30
 0
 11
16.94636
 21
37.06500
  0
LINE
  8
Engraving
 62
   7
 39
0.200
  6
CONTINUOUS
 10
16.94636
 20
37.06500
 30
 0
 11
17.58983
 21
37.06500
  0
LINE
  8
Engraving
 62
   7
 39
0.200
  6
CONTINUOUS
 10
17.58983
 20
37.06500
 30
 0
 11
17.78644
 21
37.01138
  0
LINE
  8
Engraving
 62
   7
 39
0.200
  6
CONTINUOUS
 10
17.78644
 20
37.01138
 30
 0
 11
17.91156
 21
36.92201
  0
LINE
  8
Engraving
 62
   7
 39
0.200
  6
CONTINUOUS
 10
17.91156
 20
36.92201
 30
 0
 11
18.00093
 21
36.79689
  0
LINE
  8
Engraving
 62
   7
 39
0.200
  6
CONTINUOUS
 10
18.00093
 20
36.79689
 30
 0
 11
18.01880
 21
36.63602
  0
LINE
  8
Engraving
 62
   7
 39
0.200
  6
CONTINUOUS
 10
18.01880
 20
36.63602
 30
 0
 11
18.01880
 21
36.38579
  0
LINE
  8
Engraving
 62
   7
 39
0.200
  6
CONTINUOUS
 10
18.01880
 20
36.38579
 30
 0
 11
18.00093
 21
36.24280
  0
LINE
  8
Engraving
 62
   7
 39
0.200
  6
CONTINUOUS
 10
18.00093
 20
36.24280
 30
 0
 11
17.91156
 21
36.09980
  0
LINE
  8
Engraving
 62
   7
 39
0.200
  6
CONTINUOUS
 10
17.91156
 20
36.09980
 30
 0
 11
17.80431
 21
36.01043
  0
LINE
  8
Engraving
 62
   7
 39
0.200
  6
CONTINUOUS
 10
17.80431
 20
36.01043
 30
 0
 11
17.60770
 21
35.95681
  0
LINE
  8
Engraving
 62
   7
 39
0.200
  6
CONTINUOUS
 10
17.60770
 20
35.95681
 30
 0
 11
16.94636
 21
35.95681
  0
LINE
  8
Engraving
 62
   7
 39
0.200
  6
CONTINUOUS
 10
13.21329
 20
4.13500
 30
 0
 11
12.56983
 21
2.93744
  0
LINE
  8
Engraving
 62
   7
 39
0.200
  6
CONTINUOUS
 10
12.56983
 20
2.93744
 30
 0
 11
11.92636
 21
4.13500
  0
LINE
  8
Engraving
 62
   7
 39
0.200
  6
CONTINUOUS
 10
12.56983
 20
2.93744
 30
 0
 11
12.56983
 21
1.86500
  0
LINE
  8
Engraving
 62
   7
 39
0.200
  6
CONTINUOUS
 10
13.66049
 20
2.66933
 30
 0
 11
13.66049
 21
2.24035
  0
LINE
  8
Engraving
 62
   7
 39
0.200
  6
CONTINUOUS
 10
13.66049
 20
2.24035
 30
 0
 11
13.69624
 21
2.07949
  0
LINE
  8
Engraving
 62
   7
 39
0.200
  6
CONTINUOUS
 10
13.69624
 20
2.07949
 30
 0
 11
13.78561
 21
1.95437
  0
LINE
  8
Engraving
 62
   7
 39
0.200
  6
CONTINUOUS
 10
13.78561
 20
1.95437
 30
 0
 11
13.94647
 21
1.86500
  0
LINE
  8
Engraving
 62
   7
 39
0.200
  6
CONTINUOUS
 10
13.94647
 20
1.86500
 30
 0
 11
14.07159
 21
1.84713
  0
LINE
  8
Engraving
 62
   7
 39
0.200
  6
CONTINUOUS
 10
14.07159
 20
1.84713
 30
 0
 11
14.23246
 21
1.84713
  0
LINE
  8
Engraving
 62
   7
 39
0.200
  6
CONTINUOUS
 10
14.23246
 20
1.84713
 30
 0
 11
14.37545
 21
1.88287
  0
LINE
  8
Engraving
 62
   7
 39
0.200
  6
CONTINUOUS
 10
14.37545
 20
1.88287
 30
 0
 11
14.48269
 21
1.97224
  0
LINE
  8
Engraving
 62
   7
 39
0.200
  6
CONTINUOUS
 10
14.48269
 20
1.97224
 30
 0
 11
14.57206
 21
2.11524
  0
LINE
  8
Engraving
 62
   7
 39
0.200
  6
CONTINUOUS
 10
14.57206
 20
2.11524
 30
 0
 11
14.60781
 21
2.24035
  0
LINE
  8
Engraving
 62
   7
 39
0.200
  6
CONTINUOUS
 10
14.60781
 20
2.24035
 30
 0
 11
14.60781
 21
3.06256
  0
LINE
  8
Engraving
 62
   7
 39
0.200
  6
CONTINUOUS
 10
14.60781
 20
3.06256
 30
 0
 11
14.55419
 21
3.25917
  0
LINE
  8
Engraving
 62
   7
 39
0.200
  6
CONTINUOUS
 10
14.55419
 20
3.25917
 30
 0
 11
14.46482
 21
3.36642
  0
LINE
  8
Engraving
 62
   7
 39
0.200
  6
CONTINUOUS
 10
14.46482
 20
3.36642
 30
 0
 11
14.33970
 21
3.45579
  0
LINE
  8
Engraving
 62
   7
 39
0.200
  6
CONTINUOUS
 10
14.33970
 20
3.45579
 30
 0
 11
14.19671
 21
3.47366
  0
LINE
  8
Engraving
 62
   7
 39
0.200
  6
CONTINUOUS
 10
14.19671
 20
3.47366
 30
 0
 11
14.07159
 21
3.47366
  0
LINE
  8
Engraving
 62
   7
 39
0.200
  6
CONTINUOUS
 10
14.07159
 20
3.47366
 30
 0
 11
13.89285
 21
3.43791
  0
LINE
  8
Engraving
 62
   7
 39
0.200
  6
CONTINUOUS
 10
13.89285
 20
3.43791
 30
 0
 11
13.76773
 21
3.34854
  0
LINE
  8
Engraving
 62
   7
 39
0.200
  6
CONTINUOUS
 10
13.76773
 20
3.34854
 30
 0
 11
13.69624
 21
3.24130
  0
LINE
  8
Engraving
 62
   7
 39
0.200
  6
CONTINUOUS
 10
13.69624
 20
3.24130
 30
 0
 11
13.66049
 21
3.06256
  0
LINE
  8
Engraving
 62
   7
 39
0.200
  6
CONTINUOUS
 10
13.66049
 20
3.06256
 30
 0
 11
13.66049
 21
2.66933
  0
LINE
  8
Engraving
 62
   7
 39
0.200
  6
CONTINUOUS
 10
15.05549
 20
1.86500
 30
 0
 11
15.05549
 21
4.13500
  0
LINE
  8
Engraving
 62
   7
 39
0.200
  6
CONTINUOUS
 10
15.05549
 20
4.13500
 30
 0
 11
15.21635
 21
4.13500
  0
LINE
  8
Engraving
 62
   7
 39
0.200
  6
CONTINUOUS
 10
15.21635
 20
4.13500
 30
 0
 11
15.87769
 21
1.86500
  0
LINE
  8
Engraving
 62
   7
 39
0.200
  6
CONTINUOUS
 10
15.87769
 20
1.86500
 30
 0
 11
16.52116
 21
4.13500
  0
LINE
  8
Engraving
 62
   7
 39
0.200
  6
CONTINUOUS
 10
16.52116
 20
4.13500
 30
 0
 11
16.68202
 21
4.13500
  0
LINE
  8
Engraving
 62
   7
 39
0.200
  6
CONTINUOUS
 10
16.68202
 20
4.13500
 30
 0
 11
16.68202
 21
1.86500
  0
LINE
  8
Engraving
 62
   7
 39
0.200
  6
CONTINUOUS
 10
17.12849
 20
2.66933
 30
 0
 11
17.12849
 21
2.24035
  0
LINE
  8
Engraving
 62
   7
 39
0.200
  6
CONTINUOUS
 10
17.12849
 20
2.24035
 30
 0
 11
17.16424
 21
2.07949
  0
LINE
  8
Engraving
 62
   7
 39
0.200
  6
CONTINUOUS
 10
17.16424
 20
2.07949
 30
 0
 11
17.25361
 21
1.95437
  0
LINE
  8
Engraving
 62
   7
 39
0.200
  6
CONTINUOUS
 10
17.25361
 20
1.95437
 30
 0
 11
17.41447
 21
1.86500
  0
LINE
  8
Engraving
 62
   7
 39
0.200
  6
CONTINUOUS
 10
17.41447
 20
1.86500
 30
 0
 11
17.53959
 21
1.84713
  0
LINE
  8
Engraving
 62
   7
 39
0.200
  6
CONTINUOUS
 10
17.53959
 20
1.84713
 30
 0
 11
17.70046
 21
1.84713
  0
LINE
  8
Engraving
 62
   7
 39
0.200
  6
CONTINUOUS
 10
17.70046
 20
1.84713
 30
 0
 11
17.84345
 21
1.88287
  0
LINE
  8
Engraving
 62
   7
 39
0.200
  6
CONTINUOUS
 10
17.84345
 20
1.88287
 30
 0
 11
17.95069
 21
1.97224
  0
LINE
  8
Engraving
 62
   7
 39
0.200
  6
CONTINUOUS
 10
17.95069
 20
1.97224
 30
 0
 11
18.04006
 21
2.11524
  0
LINE
  8
Engraving
 62
   7
 39
0.200
  6
CONTINUOUS
 10
18.04006
 20
2.11524
 30
 0
 11
18.07581
 21
2.24035
  0
LINE
  8
Engraving
 62
   7
 39
0.200
  6
CONTINUOUS
 10
18.07581
 20
2.24035
 30
 0
 11
18.07581
 21
3.06256
  0
LINE
  8
Engraving
 62
   7
 39
0.200
  6
CONTINUOUS
 10
18.07581
 20
3.06256
 30
 0
 11
18.02219
 21
3.25917
  0
LINE
  8
Engraving
 62
   7
 39
0.200
  6
CONTINUOUS
 10
18.02219
 20
3.25917
 30
 0
 11
17.93282
 21
3.36642
  0
LINE
  8
Engraving
 62
   7
 39
0.200
  6
CONTINUOUS
 10
17.93282
 20
3.36642
 30
 0
 11
17.80770
 21
3.45579
  0
LINE
  8
Engraving
 62
   7
 39
0.200
  6
CONTINUOUS
 10
17.80770
 20
3.45579
 30
 0
 11
17.66471
 21
3.47366
  0
LINE
  8
Engraving
 62
   7
 39
0.200
  6
CONTINUOUS
 10
17.66471
 20
3.47366
 30
 0
 11
17.53959
 21
3.47366
  0
LINE
  8
Engraving
 62
   7
 39
0.200
  6
CONTINUOUS
 10
17.53959
 20
3.47366
 30
 0
 11
17.36085
 21
3.43791
  0
LINE
  8
Engraving
 62
   7
 39
0.200
  6
CONTINUOUS
 10
17.36085
 20
3.43791
 30
 0
 11
17.23573
 21
3.34854
  0
LINE
  8
Engraving
 62
   7
 39
0.200
  6
CONTINUOUS
 10
17.23573
 20
3.34854
 30
 0
 11
17.16424
 21
3.24130
  0
LINE
  8
Engraving
 62
   7
 39
0.200
  6
CONTINUOUS
 10
17.16424
 20
3.24130
 30
 0
 11
17.12849
 21
3.06256
  0
LINE
  8
Engraving
 62
   7
 39
0.200
  6
CONTINUOUS
 10
17.12849
 20
3.06256
 30
 0
 11
17.12849
 21
2.66933
  0
LINE
  8
Engraving
 62
   7
 39
0.200
  6
CONTINUOUS
 10
4.55136
 20
75.82500
 30
 0
 11
4.55136
 21
73.55500
  0
LINE
  8
Engraving
 62
   7
 39
0.200
  6
CONTINUOUS
 10
4.99849
 20
73.55500
 30
 0
 11
4.99849
 21
75.14579
  0
LINE
  8
Engraving
 62
   7
 39
0.200
  6
CONTINUOUS
 10
4.99849
 20
75.14579
 30
 0
 11
4.99849
 21
74.98492
  0
LINE
  8
Engraving
 62
   7
 39
0.200
  6
CONTINUOUS
 10
4.99849
 20
74.98492
 30
 0
 11
5.12361
 21
75.05642
  0
LINE
  8
Engraving
 62
   7
 39
0.200
  6
CONTINUOUS
 10
5.12361
 20
75.05642
 30
 0
 11
5.24872
 21
75.11004
  0
LINE
  8
Engraving
 62
   7
 39
0.200
  6
CONTINUOUS
 10
5.24872
 20
75.11004
 30
 0
 11
5.32022
 21
75.14579
  0
LINE
  8
Engraving
 62
   7
 39
0.200
  6
CONTINUOUS
 10
5.32022
 20
75.14579
 30
 0
 11
5.48109
 21
75.16366
  0
LINE
  8
Engraving
 62
   7
 39
0.200
  6
CONTINUOUS
 10
5.48109
 20
75.16366
 30
 0
 11
5.64195
 21
75.14579
  0
LINE
  8
Engraving
 62
   7
 39
0.200
  6
CONTINUOUS
 10
5.64195
 20
75.14579
 30
 0
 11
5.78494
 21
75.05642
  0
LINE
  8
Engraving
 62
   7
 39
0.200
  6
CONTINUOUS
 10
5.78494
 20
75.05642
 30
 0
 11
5.87431
 21
74.94917
  0
LINE
  8
Engraving
 62
   7
 39
0.200
  6
CONTINUOUS
 10
5.87431
 20
74.94917
 30
 0
 11
5.91006
 21
74.75256
  0
LINE
  8
Engraving
 62
   7
 39
0.200
  6
CONTINUOUS
 10
5.91006
 20
74.75256
 30
 0
 11
5.91006
 21
73.55500
  0
LINE
  8
Engraving
 62
   7
 39
0.200
  6
CONTINUOUS
 10
4.55136
 20
30.08000
 30
 0
 11
4.55136
 21
27.81000
  0
LINE
  8
Engraving
 62
   7
 39
0.200
  6
CONTINUOUS
 10
4.99849
 20
27.81000
 30
 0
 11
4.99849
 21
29.40079
  0
LINE
  8
Engraving
 62
   7
 39
0.200
  6
CONTINUOUS
 10
4.99849
 20
29.40079
 30
 0
 11
4.99849
 21
29.23992
  0
LINE
  8
Engraving
 62
   7
 39
0.200
  6
CONTINUOUS
 10
4.99849
 20
29.23992
 30
 0
 11
5.12361
 21
29.31142
  0
LINE
  8
Engraving
 62
   7
 39
0.200
  6
CONTINUOUS
 10
5.12361
 20
29.31142
 30
 0
 11
5.24872
 21
29.36504
  0
LINE
  8
Engraving
 62
   7
 39
0.200
  6
CONTINUOUS
 10
5.24872
 20
29.36504
 30
 0
 11
5.32022
 21
29.40079
  0
LINE
  8
Engraving
 62
   7
 39
0.200
  6
CONTINUOUS
 10
5.32022
 20
29.40079
 30
 0
 11
5.48109
 21
29.41866
  0
LINE
  8
Engraving
 62
   7
 39
0.200
  6
CONTINUOUS
 10
5.48109
 20
29.41866
 30
 0
 11
5.64195
 21
29.40079
  0
LINE
  8
Engraving
 62
   7
 39
0.200
  6
CONTINUOUS
 10
5.64195
 20
29.40079
 30
 0
 11
5.78494
 21
29.31142
  0
LINE
  8
Engraving
 62
   7
 39
0.200
  6
CONTINUOUS
 10
5.78494
 20
29.31142
 30
 0
 11
5.87431
 21
29.20417
  0
LINE
  8
Engraving
 62
   7
 39
0.200
  6
CONTINUOUS
 10
5.87431
 20
29.20417
 30
 0
 11
5.91006
 21
29.00756
  0
LINE
  8
Engraving
 62
   7
 39
0.200
  6
CONTINUOUS
 10
5.91006
 20
29.00756
 30
 0
 11
5.91006
 21
27.81000
  0
LINE
  8
Engraving
 62
   7
 39
0.200
  6
CONTINUOUS
 10
12.91449
 20
28.95394
 30
 0
 11
12.91449
 21
28.22110
  0
LINE
  8
Engraving
 62
   7
 39
0.200
  6
CONTINUOUS
 10
12.91449
 20
28.22110
 30
 0
 11
12.95024
 21
28.04236
  0
LINE
  8
Engraving
 62
   7
 39
0.200
  6
CONTINUOUS
 10
12.95024
 20
28.04236
 30
 0
 11
13.02173
 21
27.93512
  0
LINE
  8
Engraving
 62
   7
 39
0.200
  6
CONTINUOUS
 10
13.02173
 20
27.93512
 30
 0
 11
13.11110
 21
27.86362
  0
LINE
  8
Engraving
 62
   7
 39
0.200
  6
CONTINUOUS
 10
13.11110
 20
27.86362
 30
 0
 11
13.23622
 21
27.79213
  0
LINE
  8
Engraving
 62
   7
 39
0.200
  6
CONTINUOUS
 10
13.23622
 20
27.79213
 30
 0
 11
13.34346
 21
27.79213
  0
LINE
  8
Engraving
 62
   7
 39
0.200
  6
CONTINUOUS
 10
13.34346
 20
27.79213
 30
 0
 11
13.62945
 21
27.79213
  0
LINE
  8
Engraving
 62
   7
 39
0.200
  6
CONTINUOUS
 10
13.62945
 20
27.79213
 30
 0
 11
13.79031
 21
27.81000
  0
LINE
  8
Engraving
 62
   7
 39
0.200
  6
CONTINUOUS
 10
13.79031
 20
27.81000
 30
 0
 11
13.91543
 21
27.88150
  0
LINE
  8
Engraving
 62
   7
 39
0.200
  6
CONTINUOUS
 10
13.91543
 20
27.88150
 30
 0
 11
14.02268
 21
28.02449
  0
LINE
  8
Engraving
 62
   7
 39
0.200
  6
CONTINUOUS
 10
14.02268
 20
28.02449
 30
 0
 11
14.07630
 21
28.22110
  0
LINE
  8
Engraving
 62
   7
 39
0.200
  6
CONTINUOUS
 10
14.07630
 20
28.22110
 30
 0
 11
14.07630
 21
29.66890
  0
LINE
  8
Engraving
 62
   7
 39
0.200
  6
CONTINUOUS
 10
14.07630
 20
29.66890
 30
 0
 11
14.04055
 21
29.81189
  0
LINE
  8
Engraving
 62
   7
 39
0.200
  6
CONTINUOUS
 10
14.04055
 20
29.81189
 30
 0
 11
13.96906
 21
29.95488
  0
LINE
  8
Engraving
 62
   7
 39
0.200
  6
CONTINUOUS
 10
13.96906
 20
29.95488
 30
 0
 11
13.87969
 21
30.02638
  0
LINE
  8
Engraving
 62
   7
 39
0.200
  6
CONTINUOUS
 10
13.87969
 20
30.02638
 30
 0
 11
13.79031
 21
30.08000
  0
LINE
  8
Engraving
 62
   7
 39
0.200
  6
CONTINUOUS
 10
13.79031
 20
30.08000
 30
 0
 11
13.62945
 21
30.09787
  0
LINE
  8
Engraving
 62
   7
 39
0.200
  6
CONTINUOUS
 10
13.62945
 20
30.09787
 30
 0
 11
13.34346
 21
30.09787
  0
LINE
  8
Engraving
 62
   7
 39
0.200
  6
CONTINUOUS
 10
13.34346
 20
30.09787
 30
 0
 11
13.20047
 21
30.08000
  0
LINE
  8
Engraving
 62
   7
 39
0.200
  6
CONTINUOUS
 10
13.20047
 20
30.08000
 30
 0
 11
13.07535
 21
30.00850
  0
LINE
  8
Engraving
 62
   7
 39
0.200
  6
CONTINUOUS
 10
13.07535
 20
30.00850
 30
 0
 11
12.98598
 21
29.91913
  0
LINE
  8
Engraving
 62
   7
 39
0.200
  6
CONTINUOUS
 10
12.98598
 20
29.91913
 30
 0
 11
12.93236
 21
29.81189
  0
LINE
  8
Engraving
 62
   7
 39
0.200
  6
CONTINUOUS
 10
12.93236
 20
29.81189
 30
 0
 11
12.91449
 21
29.66890
  0
LINE
  8
Engraving
 62
   7
 39
0.200
  6
CONTINUOUS
 10
12.91449
 20
29.66890
 30
 0
 11
12.91449
 21
28.95394
  0
LINE
  8
Engraving
 62
   7
 39
0.200
  6
CONTINUOUS
 10
15.43506
 20
29.40179
 30
 0
 11
15.43506
 21
27.81100
  0
LINE
  8
Engraving
 62
   7
 39
0.200
  6
CONTINUOUS
 10
15.43506
 20
27.81100
 30
 0
 11
15.43506
 21
27.97187
  0
LINE
  8
Engraving
 62
   7
 39
0.200
  6
CONTINUOUS
 10
15.43506
 20
27.97187
 30
 0
 11
15.30994
 21
27.88250
  0
LINE
  8
Engraving
 62
   7
 39
0.200
  6
CONTINUOUS
 10
15.30994
 20
27.88250
 30
 0
 11
15.20270
 21
27.84675
  0
LINE
  8
Engraving
 62
   7
 39
0.200
  6
CONTINUOUS
 10
15.20270
 20
27.84675
 30
 0
 11
15.11333
 21
27.81100
  0
LINE
  8
Engraving
 62
   7
 39
0.200
  6
CONTINUOUS
 10
15.11333
 20
27.81100
 30
 0
 11
14.97034
 21
27.79313
  0
LINE
  8
Engraving
 62
   7
 39
0.200
  6
CONTINUOUS
 10
14.97034
 20
27.79313
 30
 0
 11
14.80947
 21
27.81100
  0
LINE
  8
Engraving
 62
   7
 39
0.200
  6
CONTINUOUS
 10
14.80947
 20
27.81100
 30
 0
 11
14.66648
 21
27.90037
  0
LINE
  8
Engraving
 62
   7
 39
0.200
  6
CONTINUOUS
 10
14.66648
 20
27.90037
 30
 0
 11
14.57711
 21
28.00761
  0
LINE
  8
Engraving
 62
   7
 39
0.200
  6
CONTINUOUS
 10
14.57711
 20
28.00761
 30
 0
 11
14.52349
 21
28.20423
  0
LINE
  8
Engraving
 62
   7
 39
0.200
  6
CONTINUOUS
 10
14.52349
 20
28.20423
 30
 0
 11
14.52349
 21
29.40179
  0
LINE
  8
Engraving
 62
   7
 39
0.200
  6
CONTINUOUS
 10
16.25684
 20
29.66990
 30
 0
 11
16.25684
 21
28.04336
  0
LINE
  8
Engraving
 62
   7
 39
0.200
  6
CONTINUOUS
 10
16.25684
 20
28.04336
 30
 0
 11
16.27472
 21
27.93612
  0
LINE
  8
Engraving
 62
   7
 39
0.200
  6
CONTINUOUS
 10
16.27472
 20
27.93612
 30
 0
 11
16.31046
 21
27.84675
  0
LINE
  8
Engraving
 62
   7
 39
0.200
  6
CONTINUOUS
 10
16.31046
 20
27.84675
 30
 0
 11
16.38196
 21
27.81100
  0
LINE
  8
Engraving
 62
   7
 39
0.200
  6
CONTINUOUS
 10
16.38196
 20
27.81100
 30
 0
 11
16.61432
 21
27.82887
  0
LINE
  8
Engraving
 62
   7
 39
0.200
  6
CONTINUOUS
 10
15.89936
 20
29.41966
 30
 0
 11
16.59645
 21
29.41966
  0
LINE
  8
Engraving
 62
   7
 39
0.200
  6
CONTINUOUS
 10
12.91049
 20
74.69894
 30
 0
 11
12.91049
 21
73.96610
  0
LINE
  8
Engraving
 62
   7
 39
0.200
  6
CONTINUOUS
 10
12.91049
 20
73.96610
 30
 0
 11
12.94624
 21
73.78736
  0
LINE
  8
Engraving
 62
   7
 39
0.200
  6
CONTINUOUS
 10
12.94624
 20
73.78736
 30
 0
 11
13.01773
 21
73.68012
  0
LINE
  8
Engraving
 62
   7
 39
0.200
  6
CONTINUOUS
 10
13.01773
 20
73.68012
 30
 0
 11
13.10710
 21
73.60862
  0
LINE
  8
Engraving
 62
   7
 39
0.200
  6
CONTINUOUS
 10
13.10710
 20
73.60862
 30
 0
 11
13.23222
 21
73.53713
  0
LINE
  8
Engraving
 62
   7
 39
0.200
  6
CONTINUOUS
 10
13.23222
 20
73.53713
 30
 0
 11
13.33946
 21
73.53713
  0
LINE
  8
Engraving
 62
   7
 39
0.200
  6
CONTINUOUS
 10
13.33946
 20
73.53713
 30
 0
 11
13.62545
 21
73.53713
  0
LINE
  8
Engraving
 62
   7
 39
0.200
  6
CONTINUOUS
 10
13.62545
 20
73.53713
 30
 0
 11
13.78631
 21
73.55500
  0
LINE
  8
Engraving
 62
   7
 39
0.200
  6
CONTINUOUS
 10
13.78631
 20
73.55500
 30
 0
 11
13.91143
 21
73.62650
  0
LINE
  8
Engraving
 62
   7
 39
0.200
  6
CONTINUOUS
 10
13.91143
 20
73.62650
 30
 0
 11
14.01868
 21
73.76949
  0
LINE
  8
Engraving
 62
   7
 39
0.200
  6
CONTINUOUS
 10
14.01868
 20
73.76949
 30
 0
 11
14.07230
 21
73.96610
  0
LINE
  8
Engraving
 62
   7
 39
0.200
  6
CONTINUOUS
 10
14.07230
 20
73.96610
 30
 0
 11
14.07230
 21
75.41390
  0
LINE
  8
Engraving
 62
   7
 39
0.200
  6
CONTINUOUS
 10
14.07230
 20
75.41390
 30
 0
 11
14.03655
 21
75.55689
  0
LINE
  8
Engraving
 62
   7
 39
0.200
  6
CONTINUOUS
 10
14.03655
 20
75.55689
 30
 0
 11
13.96506
 21
75.69988
  0
LINE
  8
Engraving
 62
   7
 39
0.200
  6
CONTINUOUS
 10
13.96506
 20
75.69988
 30
 0
 11
13.87569
 21
75.77138
  0
LINE
  8
Engraving
 62
   7
 39
0.200
  6
CONTINUOUS
 10
13.87569
 20
75.77138
 30
 0
 11
13.78631
 21
75.82500
  0
LINE
  8
Engraving
 62
   7
 39
0.200
  6
CONTINUOUS
 10
13.78631
 20
75.82500
 30
 0
 11
13.62545
 21
75.84287
  0
LINE
  8
Engraving
 62
   7
 39
0.200
  6
CONTINUOUS
 10
13.62545
 20
75.84287
 30
 0
 11
13.33946
 21
75.84287
  0
LINE
  8
Engraving
 62
   7
 39
0.200
  6
CONTINUOUS
 10
13.33946
 20
75.84287
 30
 0
 11
13.19647
 21
75.82500
  0
LINE
  8
Engraving
 62
   7
 39
0.200
  6
CONTINUOUS
 10
13.19647
 20
75.82500
 30
 0
 11
13.07135
 21
75.75350
  0
LINE
  8
Engraving
 62
   7
 39
0.200
  6
CONTINUOUS
 10
13.07135
 20
75.75350
 30
 0
 11
12.98198
 21
75.66413
  0
LINE
  8
Engraving
 62
   7
 39
0.200
  6
CONTINUOUS
 10
12.98198
 20
75.66413
 30
 0
 11
12.92836
 21
75.55689
  0
LINE
  8
Engraving
 62
   7
 39
0.200
  6
CONTINUOUS
 10
12.92836
 20
75.55689
 30
 0
 11
12.91049
 21
75.41390
  0
LINE
  8
Engraving
 62
   7
 39
0.200
  6
CONTINUOUS
 10
12.91049
 20
75.41390
 30
 0
 11
12.91049
 21
74.69894
  0
LINE
  8
Engraving
 62
   7
 39
0.200
  6
CONTINUOUS
 10
15.43106
 20
75.14679
 30
 0
 11
15.43106
 21
73.55600
  0
LINE
  8
Engraving
 62
   7
 39
0.200
  6
CONTINUOUS
 10
15.43106
 20
73.55600
 30
 0
 11
15.43106
 21
73.71687
  0
LINE
  8
Engraving
 62
   7
 39
0.200
  6
CONTINUOUS
 10
15.43106
 20
73.71687
 30
 0
 11
15.30594
 21
73.62750
  0
LINE
  8
Engraving
 62
   7
 39
0.200
  6
CONTINUOUS
 10
15.30594
 20
73.62750
 30
 0
 11
15.19870
 21
73.59175
  0
LINE
  8
Engraving
 62
   7
 39
0.200
  6
CONTINUOUS
 10
15.19870
 20
73.59175
 30
 0
 11
15.10933
 21
73.55600
  0
LINE
  8
Engraving
 62
   7
 39
0.200
  6
CONTINUOUS
 10
15.10933
 20
73.55600
 30
 0
 11
14.96634
 21
73.53813
  0
LINE
  8
Engraving
 62
   7
 39
0.200
  6
CONTINUOUS
 10
14.96634
 20
73.53813
 30
 0
 11
14.80547
 21
73.55600
  0
LINE
  8
Engraving
 62
   7
 39
0.200
  6
CONTINUOUS
 10
14.80547
 20
73.55600
 30
 0
 11
14.66248
 21
73.64537
  0
LINE
  8
Engraving
 62
   7
 39
0.200
  6
CONTINUOUS
 10
14.66248
 20
73.64537
 30
 0
 11
14.57311
 21
73.75261
  0
LINE
  8
Engraving
 62
   7
 39
0.200
  6
CONTINUOUS
 10
14.57311
 20
73.75261
 30
 0
 11
14.51949
 21
73.94923
  0
LINE
  8
Engraving
 62
   7
 39
0.200
  6
CONTINUOUS
 10
14.51949
 20
73.94923
 30
 0
 11
14.51949
 21
75.14679
  0
LINE
  8
Engraving
 62
   7
 39
0.200
  6
CONTINUOUS
 10
16.25284
 20
75.41490
 30
 0
 11
16.25284
 21
73.78836
  0
LINE
  8
Engraving
 62
   7
 39
0.200
  6
CONTINUOUS
 10
16.25284
 20
73.78836
 30
 0
 11
16.27072
 21
73.68112
  0
LINE
  8
Engraving
 62
   7
 39
0.200
  6
CONTINUOUS
 10
16.27072
 20
73.68112
 30
 0
 11
16.30646
 21
73.59175
  0
LINE
  8
Engraving
 62
   7
 39
0.200
  6
CONTINUOUS
 10
16.30646
 20
73.59175
 30
 0
 11
16.37796
 21
73.55600
  0
LINE
  8
Engraving
 62
   7
 39
0.200
  6
CONTINUOUS
 10
16.37796
 20
73.55600
 30
 0
 11
16.61032
 21
73.57387
  0
LINE
  8
Engraving
 62
   7
 39
0.200
  6
CONTINUOUS
 10
15.89536
 20
75.16466
 30
 0
 11
16.59245
 21
75.16466
  0
CIRCLE
  8
Contour
 62
   7
 39
0.100
  6
CONTINUOUS
 10
7.50000
 20
125.50000
 30
 0
 40
1.50000
  0
CIRCLE
  8
Contour
 62
   7
 39
0.100
  6
CONTINUOUS
 10
7.50000
 20
3.00000
 30
 0
 40
1.50000
  0
CIRCLE
  8
Contour
 62
   7
 39
0.100
  6
CONTINUOUS
 10
10.31000
 20
95.63500
 30
 0
 40
3.75000
  0
CIRCLE
  8
Contour
 62
   7
 39
0.100
  6
CONTINUOUS
 10
10.31000
 20
81.66000
 30
 0
 40
3.75000
  0
CIRCLE
  8
Contour
 62
   7
 39
0.100
  6
CONTINUOUS
 10
10.31000
 20
49.91000
 30
 0
 40
3.75000
  0
CIRCLE
  8
Contour
 62
   7
 39
0.100
  6
CONTINUOUS
 10
10.31000
 20
35.93000
 30
 0
 40
3.75000
  0
CIRCLE
  8
Contour
 62
   7
 39
0.100
  6
CONTINUOUS
 10
5.23000
 20
67.79000
 30
 0
 40
3.00000
  0
CIRCLE
  8
Contour
 62
   7
 39
0.100
  6
CONTINUOUS
 10
14.76000
 20
67.69000
 30
 0
 40
3.00000
  0
CIRCLE
  8
Contour
 62
   7
 39
0.100
  6
CONTINUOUS
 10
5.23000
 20
21.96000
 30
 0
 40
3.00000
  0
CIRCLE
  8
Contour
 62
   7
 39
0.100
  6
CONTINUOUS
 10
14.75000
 20
21.96000
 30
 0
 40
3.00000
  0
CIRCLE
  8
Contour
 62
   7
 39
0.100
  6
CONTINUOUS
 10
3.32000
 20
42.92000
 30
 0
 40
1.75000
  0
CIRCLE
  8
Contour
 62
   7
 39
0.100
  6
CONTINUOUS
 10
3.32000
 20
88.64000
 30
 0
 40
1.75000
  0
ENDSEC
  0
EOF
